<svg xmlns="http://www.w3.org/2000/svg" xmlns:xlink="http://www.w3.org/1999/xlink" width="931.813" height="934.92388" viewBox="0 0 931.813 934.92388"><defs><style>.cls-1{fill:#231f20;opacity:0.01;}.cls-1,.cls-10,.cls-11,.cls-12,.cls-13,.cls-14,.cls-15,.cls-16,.cls-17,.cls-18,.cls-19,.cls-2,.cls-20,.cls-21,.cls-22,.cls-23,.cls-24,.cls-25,.cls-26,.cls-27,.cls-28,.cls-29,.cls-3,.cls-30,.cls-31,.cls-32,.cls-33,.cls-34,.cls-35,.cls-36,.cls-37,.cls-4,.cls-5,.cls-6,.cls-7,.cls-8,.cls-9{isolation:isolate;}.cls-2{fill:#221e1f;opacity:0.02083;}.cls-3{fill:#211d1e;opacity:0.03167;}.cls-4{fill:#201c1d;opacity:0.0425;}.cls-5{fill:#1f1c1c;opacity:0.05333;}.cls-6{fill:#1e1b1c;opacity:0.06417;}.cls-7{fill:#1d1a1b;opacity:0.075;}.cls-8{fill:#1c191a;opacity:0.08583;}.cls-9{fill:#1b1819;opacity:0.09667;}.cls-10{fill:#1a1718;opacity:0.1075;}.cls-11{fill:#191617;opacity:0.11833;}.cls-12{fill:#181616;opacity:0.12917;}.cls-13{fill:#171515;opacity:0.14;}.cls-14{fill:#161414;opacity:0.15083;}.cls-15{fill:#151314;opacity:0.16167;}.cls-16{fill:#141213;opacity:0.1725;}.cls-17{fill:#131112;opacity:0.18333;}.cls-18{fill:#121011;opacity:0.19417;}.cls-19{fill:#121010;opacity:0.205;}.cls-20{fill:#110f0f;opacity:0.21583;}.cls-21{fill:#100e0e;opacity:0.22667;}.cls-22{fill:#0f0d0d;opacity:0.2375;}.cls-23{fill:#0e0c0c;opacity:0.24833;}.cls-24{fill:#0d0b0c;opacity:0.25917;}.cls-25{fill:#0c0a0b;opacity:0.27;}.cls-26{fill:#0b090a;opacity:0.28083;}.cls-27{fill:#0a0909;opacity:0.29167;}.cls-28{fill:#090808;opacity:0.3025;}.cls-29{fill:#080707;opacity:0.31333;}.cls-30{fill:#070606;opacity:0.32417;}.cls-31{fill:#060505;opacity:0.335;}.cls-32{fill:#050404;opacity:0.34583;}.cls-33{fill:#040304;opacity:0.35667;}.cls-34{fill:#030303;opacity:0.3675;}.cls-35{fill:#020202;opacity:0.37833;}.cls-36{fill:#010101;opacity:0.38917;}.cls-37{opacity:0.4;}.cls-38{fill:#c9c9c9;}.cls-39{fill:#fff;}.cls-40{fill:url(#New_Gradient_Swatch_copy_2);}</style><linearGradient id="New_Gradient_Swatch_copy_2" x1="847.86136" y1="390.37055" x2="186.10643" y2="-271.38438" gradientTransform="matrix(1, 0, 0, -1, 0, 629.98874)" gradientUnits="userSpaceOnUse"><stop offset="0" stop-color="#c1c2c8"/><stop offset="0.07894" stop-color="#c8cad5"/><stop offset="0.24783" stop-color="#d3d6e5"/><stop offset="0.4366" stop-color="#dbdff4"/><stop offset="0.65921" stop-color="#e0e4fc"/><stop offset="1" stop-color="#e1e6ff"/></linearGradient></defs><g id="Layer_2" data-name="Layer 2"><g id="Layer_1-2" data-name="Layer 1"><g id="Layer_2-2" data-name="Layer 2"><g id="Layer_1-2-2" data-name="Layer 1-2"><path class="cls-1" d="M628.80127,289.59051c0,259.42133-392.63959,259.68909-392.63959,0C236.1617,30.169,628.80127,29.9011,628.80127,289.59051ZM576.8855,511.92911c-76.90949,95.94-223.83789,92.11923-295.7114-7.5965C117.53719,560.87268,0,716.25763,0,899.11438c279.4769,46.88592,547.7641,48.59839,835.2005,0C852.46069,724.6051,735.373,574.07129,576.8855,511.92911Z"/><path class="cls-2" d="M631.35474,287.03705c0,259.42132-392.63959,259.68908-392.63959,0C238.71513,27.61556,631.35474,27.34766,631.35474,287.03705ZM579.439,509.37564c-76.90948,95.94-223.83789,92.11923-295.71139-7.5965C120.09064,558.31927,2.55344,713.70416,2.55344,896.561c279.47689,46.88593,547.76413,48.59839,835.20053,0,17.26013-174.50933-99.82758-325.04309-258.31507-387.1853Z"/><path class="cls-3" d="M633.90814,284.48361c0,259.4213-392.63959,259.68912-392.63959,0C241.26857,25.06212,633.90814,24.79422,633.90814,284.48361ZM581.99237,506.8222c-76.90948,95.94-223.83789,92.11921-295.71139-7.59649-163.6369,56.5401-281.1741,211.925-281.1741,394.7818,279.47689,46.88592,547.76409,48.59839,835.20049,0,17.2602-174.50928-99.82751-325.04309-258.315-387.18528Z"/><path class="cls-4" d="M636.46161,281.93018c0,259.42126-392.63959,259.68908-392.63959,0C243.822,22.50868,636.46161,22.24078,636.46161,281.93018ZM584.54584,504.26877c-76.90949,95.94-223.83789,92.11917-295.7114-7.5965C125.19754,553.2124,7.66034,708.59729,7.66034,891.4541c279.4769,46.88593,547.7641,48.59839,835.2005,0C860.121,716.94476,743.03333,566.411,584.54584,504.26877Z"/><path class="cls-5" d="M639.015,279.37674c0,259.42129-392.63958,259.68906-392.63958,0C246.37544,19.95523,639.015,19.68733,639.015,279.37674ZM587.09924,501.71533c-76.90948,95.94-223.83789,92.1192-295.71139-7.59649-163.6369,56.5401-281.1741,211.925-281.1741,394.78179,279.47689,46.88593,547.76409,48.59839,835.2005,0C862.67444,714.39136,745.58673,563.85754,587.09924,501.71533Z"/><path class="cls-6" d="M641.56848,276.8233c0,259.42133-392.63959,259.68909-392.63959,0C248.92889,17.40179,641.56848,17.13389,641.56848,276.8233ZM589.65271,499.1619c-76.90948,95.94-223.83789,92.11923-295.7114-7.5965-163.6369,56.54007-281.1741,211.925-281.1741,394.78177,279.4769,46.88592,547.7641,48.59839,835.2005,0C865.22791,711.83789,748.1402,561.30408,589.65271,499.1619Z"/><path class="cls-7" d="M644.12189,274.26984c0,259.42132-392.63959,259.68908-392.63959,0C251.48232,14.84835,644.12189,14.58045,644.12189,274.26984ZM592.20612,496.60843c-76.90949,95.94-223.83789,92.11923-295.7114-7.5965C132.85782,545.552,15.32062,700.937,15.32062,883.7937c279.4769,46.88593,547.7641,48.59839,835.2005,0,17.26019-174.50928-99.82752-325.043-258.315-387.18524Z"/><path class="cls-8" d="M646.67535,271.7164c0,259.42129-392.63958,259.68912-392.63958,0C254.03577,12.29491,646.67535,12.027,646.67535,271.7164ZM594.75958,494.055c-76.90948,95.94-223.83789,92.1192-295.71139-7.59649C135.4113,542.9986,17.87408,698.38348,17.87408,881.2403c279.4769,46.88592,547.7641,48.59838,835.2005,0C870.33478,706.731,753.24707,556.1972,594.75958,494.055Z"/><path class="cls-9" d="M649.22876,269.163c0,259.4213-392.63959,259.68906-392.63959,0C256.5892,9.74147,649.22876,9.47357,649.22876,269.163ZM597.313,491.50156c-76.90949,95.94-223.83789,92.11917-295.7114-7.5965-163.63688,56.54013-281.1741,211.925-281.1741,394.78183,279.4769,46.88592,547.7641,48.59839,835.2005,0C872.88818,704.17755,755.80054,553.6438,597.313,491.50156Z"/><path class="cls-10" d="M651.78223,266.60953c0,259.42129-392.63959,259.68905-392.63959,0C259.14264,7.188,651.78223,6.92013,651.78223,266.60953ZM599.86646,488.94812c-76.90949,95.94-223.8379,92.1192-295.7114-7.5965C140.51817,537.89172,22.981,693.27667,22.981,876.13342c279.47692,46.88593,547.76412,48.59839,835.20052,0C875.44165,701.62415,758.354,551.09033,599.86646,488.94812Z"/><path class="cls-11" d="M654.33569,264.05609c0,259.42133-392.63958,259.68909-392.63958,0C261.69608,4.63458,654.33569,4.36668,654.33569,264.05609ZM602.41992,486.39468c-76.90948,95.94-223.83789,92.11924-295.71139-7.59649C143.07161,535.33826,25.53439,690.72321,25.53439,873.58c279.47693,46.88592,547.76407,48.59839,835.20047,0C877.99512,699.07068,760.90741,548.53686,602.41992,486.39468Z"/><path class="cls-12" d="M656.8891,261.50265c0,259.4213-392.63959,259.68912-392.63959,0C264.24951,2.08114,656.8891,1.81324,656.8891,261.50265Zm-51.91577,222.3386c-76.90949,95.94-223.83789,92.1192-295.7114-7.5965C145.625,532.78485,28.0878,688.16974,28.0878,871.02655c279.47693,46.88593,547.76413,48.59839,835.20053,0C880.54852,696.51721,763.46082,545.98346,604.97333,483.84125Z"/><path class="cls-13" d="M659.44257,258.94919c0,259.42129-392.63959,259.68912-392.63959,0C266.803-.4723,659.44257-.7402,659.44257,258.94919ZM607.52679,481.28781c-76.90948,95.94-223.83789,92.11917-295.71139-7.5965C148.1785,530.23144,30.64127,685.61633,30.64127,868.47314c279.47692,46.88593,547.76413,48.59839,835.20053,0C883.102,693.96381,766.01428,543.43,607.52679,481.28781Z"/><path class="cls-14" d="M661.996,256.39575c0,259.42127-392.63959,259.68909-392.63959,0C269.35641-3.02574,661.996-3.29364,661.996,256.39575ZM610.0802,478.73434c-76.90948,95.94-223.83789,92.11918-295.7114-7.59649C150.73193,527.678,33.1947,683.06287,33.1947,865.91968c279.47693,46.88592,547.7641,48.59839,835.2005,0,17.26026-174.50934-99.82745-325.04309-258.315-387.18531Z"/><path class="cls-15" d="M664.54944,253.84232c0,259.42129-392.63959,259.68905-392.63959,0C271.90985-5.57918,664.54944-5.84708,664.54944,253.84232ZM612.63367,476.18091c-76.90949,95.94-223.83789,92.1192-295.7114-7.5965-163.63688,56.5401-281.17413,211.925-281.17413,394.7818,279.47693,46.88593,547.76419,48.59839,835.20047,0C888.20886,688.85693,771.12115,538.32312,612.63367,476.18091Z"/><path class="cls-16" d="M667.10284,251.28888c0,259.42129-392.63958,259.68909-392.63958,0C274.46326-8.13262,667.10284-8.40052,667.10284,251.28888ZM615.18713,473.62747c-76.90948,95.94-223.83789,92.11923-295.71139-7.5965C155.83882,522.57111,38.30158,677.956,38.30158,860.8128c279.47692,46.88593,547.76415,48.59839,835.2005,0C890.76233,686.30347,773.67462,535.76965,615.18713,473.62747Z"/><path class="cls-17" d="M669.65631,248.73543c0,259.42131-392.63959,259.68907-392.63959,0C277.01672-10.68607,669.65631-10.954,669.65631,248.73543ZM617.74054,471.074c-76.90949,95.94-223.83789,92.11924-295.7114-7.59649C158.39226,520.01764,40.855,675.40259,40.855,858.25934c279.47694,46.88592,547.76414,48.59839,835.20048,0C893.31573,683.75,776.228,533.21625,617.74054,471.074Z"/><path class="cls-18" d="M672.20972,246.182c0,259.42129-392.63959,259.68908-392.63959,0C279.57016-13.23951,672.20972-13.50741,672.20972,246.182ZM620.294,468.5206c-76.90949,95.94-223.83789,92.11917-295.7114-7.5965C160.94569,517.46417,43.40846,672.84912,43.40846,855.70587c279.47692,46.88593,547.76415,48.59839,835.20055,0C895.8692,681.19659,778.78149,530.66278,620.294,468.5206Z"/><path class="cls-19" d="M674.76318,243.62855c0,259.42132-392.63958,259.68908-392.63958,0C282.1236-15.79295,674.76318-16.06085,674.76318,243.62855ZM622.84741,465.96716c-76.90948,95.94-223.83789,92.1192-295.71139-7.59649C163.49915,514.91077,45.9619,670.29571,45.9619,853.15247c279.47694,46.88592,547.76417,48.59838,835.20058,0C898.42267,678.64313,781.3349,528.10937,622.84741,465.96716Z"/><path class="cls-20" d="M677.31665,241.0751c0,259.4213-392.63959,259.68909-392.63959,0C284.677-18.34639,677.31665-18.61429,677.31665,241.0751ZM625.40088,463.4137c-76.90949,95.94-223.83789,92.1192-295.7114-7.5965C166.0526,512.3573,48.51534,667.74225,48.51534,850.599c279.47694,46.88592,547.76414,48.59839,835.20054,0C900.97607,676.08972,783.88837,525.55591,625.40088,463.4137Z"/><path class="cls-21" d="M679.87006,238.52167c0,259.42129-392.63959,259.68908-392.63959,0C287.23047-20.89983,679.87006-21.16773,679.87006,238.52167ZM627.95435,460.86026c-76.90949,95.94-223.83789,92.11923-295.7114-7.5965C168.606,509.80386,51.06878,665.18884,51.06878,848.04559c279.47694,46.88593,547.76417,48.59839,835.20057,0C903.52954,673.53625,786.44183,523.00244,627.95435,460.86026Z"/><path class="cls-22" d="M682.42352,235.96823c0,259.4213-392.63958,259.68909-392.63958,0C289.78391-23.45327,682.42352-23.72117,682.42352,235.96823ZM630.50781,458.30682c-76.90948,95.94-223.83789,92.11921-295.71139-7.59649-163.637,56.5401-281.17421,211.92505-281.17421,394.7818,279.477,46.88592,547.76414,48.59838,835.20054,0C906.083,670.98285,788.99524,520.449,630.50775,458.30682Z"/><path class="cls-23" d="M684.97693,233.41478c0,259.42128-392.63959,259.6891-392.63959,0C292.33734-26.00672,684.97693-26.27462,684.97693,233.41478ZM633.06122,455.75336c-76.90949,95.94-223.83789,92.1192-295.7114-7.5965C173.71291,504.697,56.17565,660.082,56.17565,842.93866c279.477,46.88592,547.76417,48.59839,835.20057,0,17.26019-174.50928-99.82751-325.04309-258.315-387.18527Z"/><path class="cls-24" d="M687.5304,230.86134c0,259.42131-392.63959,259.68907-392.63959,0C294.89078-28.56016,687.5304-28.82806,687.5304,230.86134ZM635.61469,453.2c-76.90949,95.94-223.8379,92.1192-295.7114-7.5965C176.26639,502.14355,58.72913,657.5285,58.72913,840.38525c279.477,46.88593,547.76416,48.59839,835.20056,0C911.18988,665.87592,794.10211,515.34216,635.61462,453.2Z"/><path class="cls-25" d="M690.0838,228.30791c0,259.42128-392.63959,259.6891-392.63959,0C297.44421-31.1136,690.0838-31.3815,690.0838,228.30791Zm-51.91571,222.3386c-76.90948,95.94-223.83789,92.11924-295.71139-7.59649C178.81979,499.59009,61.28253,654.9751,61.28253,837.83179c279.477,46.88592,547.76416,48.59839,835.20056,0C913.74329,663.32251,796.65558,512.7887,638.16809,450.64651Z"/><path class="cls-26" d="M692.63727,225.75446c0,259.42129-392.63959,259.68908-392.63959,0C299.99765-33.667,692.63727-33.93494,692.63727,225.75446ZM640.72156,448.09305c-76.90949,95.94-223.83789,92.11923-295.7114-7.5965C181.37323,497.03665,63.836,652.42163,63.836,835.27838c279.477,46.88593,547.76416,48.59839,835.20056,0C916.29675,660.769,799.209,510.23526,640.72156,448.09305Z"/><path class="cls-27" d="M695.19067,223.201c0,259.42131-392.63958,259.68908-392.63958,0C302.55109-36.22048,695.19067-36.48838,695.19067,223.201ZM643.275,445.53961c-76.90948,95.94-223.83789,92.1192-295.71139-7.5965C183.92668,494.48321,66.38941,649.86816,66.38941,832.72491c279.477,46.88593,547.76415,48.59839,835.20056,0C918.85016,658.21564,801.76245,507.68182,643.275,445.53961Z"/><path class="cls-28" d="M697.74414,220.64758c0,259.4213-392.63959,259.68909-392.63959,0C305.10455-38.77392,697.74414-39.04182,697.74414,220.64758Zm-51.91571,222.3386c-76.90948,95.94-223.83789,92.11917-295.7114-7.5965C186.48012,491.92978,68.94285,647.31476,68.94285,830.17151c279.477,46.88592,547.76418,48.59839,835.20058,0C921.40363,655.66217,804.31592,505.12839,645.82843,442.98618Z"/><path class="cls-29" d="M700.29755,218.09413c0,259.42131-392.63959,259.68907-392.63959,0C307.658-41.32737,700.29755-41.59527,700.29755,218.09413ZM648.38184,440.43274c-76.90949,95.94-223.83789,92.1192-295.7114-7.5965C189.03355,489.37634,71.49629,644.76129,71.49629,827.618c279.477,46.88593,547.76415,48.59839,835.20055,0C923.957,653.1087,806.86932,502.57492,648.38184,440.43274Z"/><path class="cls-30" d="M702.851,215.54069c0,259.42128-392.63958,259.68911-392.63958,0C310.21143-43.88081,702.851-44.14871,702.851,215.54069ZM650.9353,437.87927c-76.90954,95.94-223.83789,92.1192-295.71139-7.59649C191.587,486.82288,74.04972,642.20789,74.04972,825.06457c279.477,46.88593,547.76418,48.59839,835.20059,0C926.5105,650.5553,809.42279,500.02148,650.9353,437.8793Z"/><path class="cls-31" d="M705.40448,212.98724c0,259.4213-392.63959,259.68909-392.63959,0C312.76486-46.43425,705.40448-46.70215,705.40448,212.98724Zm-51.91571,222.3386c-76.90955,95.94-223.83789,92.11923-295.7114-7.5965C194.14047,484.26944,76.60318,639.65442,76.60318,822.51111c279.477,46.88592,547.76413,48.59839,835.20053,0C929.064,648.00183,811.97626,497.46805,653.48877,435.32584Z"/><path class="cls-32" d="M707.95789,210.43381c0,259.42129-392.63959,259.68908-392.63959,0C315.3183-48.98769,707.95789-49.25559,707.95789,210.43381ZM656.04218,432.7724c-76.90955,95.94-223.8379,92.1192-295.7114-7.5965C196.69388,481.716,79.1566,637.101,79.1566,819.9577c279.477,46.88593,547.76418,48.59839,835.20058,0C931.61737,645.44842,814.52966,494.91461,656.04218,432.7724Z"/><path class="cls-33" d="M710.51129,207.88037c0,259.4213-392.63959,259.68909-392.63959,0C317.87173-51.54113,710.51129-51.809,710.51129,207.88037ZM658.59564,430.219c-76.90948,95.94-223.83789,92.11921-295.71139-7.59649C199.24733,479.16257,81.71,634.54755,81.71,817.4043c279.477,46.88592,547.76418,48.59839,835.20058,0C934.17084,642.895,817.08313,492.36118,658.59564,430.219Z"/><path class="cls-34" d="M713.06476,205.32693c0,259.4213-392.63959,259.68909-392.63959,0C320.42517-54.09457,713.06476-54.36247,713.06476,205.32693Zm-51.91571,222.3386c-76.90949,95.94-223.83789,92.1192-295.7114-7.5965C201.80077,476.60913,84.26348,631.99414,84.26348,814.85083c279.477,46.88592,547.76417,48.59839,835.20057,0C936.72424,640.34155,819.63654,489.80774,661.14905,427.66553Z"/><path class="cls-35" d="M715.61823,202.77348c0,259.42128-392.63959,259.68911-392.63959,0C322.97861-56.648,715.61823-56.91592,715.61823,202.77348ZM663.70251,425.11206c-76.90954,95.94-223.83792,92.1192-295.71139-7.5965-163.6369,56.5401-281.17419,211.92511-281.17419,394.7818,279.477,46.88593,547.76412,48.59839,835.20065,0C939.27771,637.78809,822.19,487.25427,663.70251,425.11209Z"/><path class="cls-36" d="M718.17163,200.22c0,259.4213-392.63959,259.68909-392.63959,0C325.532-59.20146,718.17163-59.46936,718.17163,200.22ZM666.256,422.55865c-76.90954,95.94-223.83792,92.11921-295.71139-7.59649C206.90768,471.50226,89.37039,626.88727,89.37039,809.744c279.477,46.88592,547.76413,48.59839,835.20065,0C941.83118,635.23462,824.74347,484.70084,666.256,422.55865Z"/><path class="cls-37" d="M720.7251,197.6666c0,259.42129-392.63959,259.68908-392.63959,0C328.08548-61.7549,720.7251-62.0228,720.7251,197.6666ZM668.80939,420.00519c-76.90955,95.94-223.83789,92.1192-295.7114-7.5965C209.46109,468.94879,91.9238,624.3338,91.9238,807.19049c279.477,46.88593,547.76419,48.59839,835.20059,0C944.38458,632.68121,827.29688,482.1474,668.80939,420.00519Z"/><path class="cls-38" d="M717.7251,200.6666c0,259.42129-392.63959,259.68908-392.63959,0C325.08548-58.7549,717.7251-59.0228,717.7251,200.6666ZM665.80939,423.00519c-76.90955,95.94-223.83789,92.1192-295.7114-7.5965C206.46109,471.94879,88.9238,627.3338,88.9238,810.19049c279.477,46.88593,547.76419,48.59839,835.20059,0C941.38458,635.68121,824.29688,485.1474,665.80939,423.00519Z"/><path class="cls-39" d="M723.7251,194.6666c0,259.42129-392.63959,259.68908-392.63959,0C331.08548-64.7549,723.7251-65.0228,723.7251,194.6666ZM671.80939,417.00519c-76.90955,95.94-223.83789,92.1192-295.7114-7.5965C212.46109,465.94879,94.9238,621.3338,94.9238,804.19049c279.477,46.88593,547.76419,48.59839,835.20059,0C947.38458,629.68121,830.29688,479.1474,671.80939,417.00519Z"/><path class="cls-40" d="M720.7251,197.6666c0,259.42129-392.63959,259.68908-392.63959,0C328.08548-61.7549,720.7251-62.0228,720.7251,197.6666ZM668.80939,420.00519c-76.90955,95.94-223.83789,92.1192-295.7114-7.5965C209.46109,468.94879,91.9238,624.3338,91.9238,807.19049c279.477,46.88593,547.76419,48.59839,835.20059,0C944.38458,632.68121,827.29688,482.1474,668.80939,420.00519Z"/></g></g></g></g></svg>